<?xml version="1.0" encoding="utf-8"?>
<!-- Generator: Adobe Illustrator 16.0.0, SVG Export Plug-In . SVG Version: 6.00 Build 0)  -->
<!DOCTYPE svg PUBLIC "-//W3C//DTD SVG 1.1//EN" "http://www.w3.org/Graphics/SVG/1.1/DTD/svg11.dtd">
<svg version="1.1" id="Layer_2" xmlns="http://www.w3.org/2000/svg" xmlns:xlink="http://www.w3.org/1999/xlink" x="0px" y="0px"
	 width="1200px" height="1000px" viewBox="0 0 1200 1000" enable-background="new 0 0 1200 1000" xml:space="preserve">
<line fill="none" stroke="#1D1D1B" stroke-width="8" stroke-miterlimit="10" x1="356.976" y1="272.567" x2="571.761" y2="272.567"/>
<line fill="none" stroke="#1D1D1B" stroke-width="8" stroke-miterlimit="10" x1="571.761" y1="270.296" x2="571.761" y2="795"/>
<line fill="none" stroke="#1D1D1B" stroke-width="8" stroke-miterlimit="10" x1="382.64" y1="385.996" x2="479.122" y2="795"/>
<line fill="none" stroke="#1D1D1B" stroke-width="8" stroke-miterlimit="10" x1="571.761" y1="795" x2="479.122" y2="795"/>
<path fill="none" stroke="#1D1D1B" stroke-width="8" stroke-miterlimit="10" d="M356.976,362.829
	c13.57,0,21.576,11.629,25.664,24.569"/>
<line fill="none" stroke="#1D1D1B" stroke-width="8" stroke-miterlimit="10" x1="356.976" y1="272.301" x2="142.191" y2="272.301"/>
<line fill="none" stroke="#1D1D1B" stroke-width="8" stroke-miterlimit="10" x1="142.191" y1="270.03" x2="142.191" y2="794.733"/>
<line fill="none" stroke="#1D1D1B" stroke-width="8" stroke-miterlimit="10" x1="332.614" y1="387.131" x2="234.831" y2="794.733"/>
<line fill="none" stroke="#1D1D1B" stroke-width="8" stroke-miterlimit="10" x1="142.191" y1="794.733" x2="234.831" y2="794.733"/>
<path fill="none" stroke="#1D1D1B" stroke-width="8" stroke-miterlimit="10" d="M356.976,363.236
	c-13.57,0-19.817,11.222-23.906,24.161"/>
<line fill="none" stroke="#1D1D1B" stroke-width="8" stroke-miterlimit="10" x1="871.023" y1="272.435" x2="1085.809" y2="272.435"/>
<line fill="none" stroke="#1D1D1B" stroke-width="8" stroke-miterlimit="10" x1="1085.809" y1="270.163" x2="1085.809" y2="794.867"/>
<line fill="none" stroke="#1D1D1B" stroke-width="8" stroke-miterlimit="10" x1="896.688" y1="385.862" x2="993.17" y2="794.867"/>
<line fill="none" stroke="#1D1D1B" stroke-width="8" stroke-miterlimit="10" x1="1085.809" y1="794.867" x2="993.17" y2="794.867"/>
<path fill="none" stroke="#1D1D1B" stroke-width="8" stroke-miterlimit="10" d="M871.023,362.695
	c13.57,0,21.576,11.63,25.665,24.569"/>
<line fill="none" stroke="#1D1D1B" stroke-width="8" stroke-miterlimit="10" x1="871.023" y1="272.168" x2="656.239" y2="272.168"/>
<line fill="none" stroke="#1D1D1B" stroke-width="8" stroke-miterlimit="10" x1="656.239" y1="269.896" x2="656.239" y2="794.601"/>
<line fill="none" stroke="#1D1D1B" stroke-width="8" stroke-miterlimit="10" x1="846.661" y1="386.998" x2="748.878" y2="794.601"/>
<line fill="none" stroke="#1D1D1B" stroke-width="8" stroke-miterlimit="10" x1="656.239" y1="794.601" x2="748.878" y2="794.601"/>
<path fill="none" stroke="#1D1D1B" stroke-width="8" stroke-miterlimit="10" d="M871.023,363.103
	c-13.569,0-19.817,11.222-23.905,24.162"/>
</svg>
