<svg width="80" height="81" viewBox="0 0 80 81" fill="none" xmlns="http://www.w3.org/2000/svg">
<path d="M25.0146 72.495C14.0645 67.2975 6.22855 56.565 5.02302 43.875H0C1.70783 64.665 18.9535 81 40.0167 81L42.2269 80.8988L29.4684 68.04L25.0146 72.495ZM27.995 50.49C27.3587 50.49 26.756 50.3888 26.2537 50.22C25.7179 50.0175 25.2825 49.7812 24.9142 49.41C24.5458 49.0725 24.2445 48.6675 24.0435 48.1613C23.8426 47.6888 23.7421 47.1488 23.7421 46.575H19.3889C19.3889 47.79 19.6233 48.87 20.0921 49.7812C20.5609 50.6925 21.1972 51.4687 21.9673 52.11C22.771 52.7175 23.6752 53.19 24.7133 53.4938C25.7179 53.8313 26.7894 54 27.928 54C29.167 54 30.3391 53.8313 31.3771 53.4938C32.4487 53.1562 33.3864 52.65 34.1565 52.0088C34.9267 51.3675 35.563 50.5575 35.9983 49.5787C36.4337 48.6 36.6681 47.52 36.6681 46.305C36.6681 45.6637 36.6011 45.0225 36.4337 44.415C36.2662 43.8075 36.0318 43.2337 35.6635 42.6937C35.3286 42.1537 34.8598 41.6813 34.324 41.2425C33.7547 40.8037 33.085 40.4663 32.2813 40.1963C32.951 39.8925 33.5203 39.5213 34.0226 39.0825C34.5249 38.6437 34.9267 38.1712 35.2616 37.665C35.5965 37.1588 35.8309 36.6525 35.9983 36.1125C36.1658 35.5725 36.2327 35.0325 36.2327 34.4925C36.2327 33.2775 36.0318 32.1975 35.63 31.2525C35.2281 30.3075 34.6589 29.5312 33.9221 28.9237C33.2524 28.2825 32.3483 27.81 31.3437 27.4725C30.3056 27.1688 29.167 27 27.928 27C26.7225 27 25.6174 27.1687 24.5793 27.54C23.5747 27.9112 22.6706 28.4175 21.9339 29.0587C21.2306 29.7 20.6614 30.4425 20.226 31.32C19.8242 32.1975 19.6233 33.1425 19.6233 34.1888H23.9766C23.9766 33.615 24.077 33.1088 24.2779 32.67C24.4789 32.2313 24.7468 31.8263 25.1151 31.5225C25.4835 31.2188 25.8853 30.9487 26.3876 30.78C26.8899 30.6112 27.3922 30.51 27.995 30.51C29.3344 30.51 30.3391 30.8475 30.9753 31.5563C31.6116 32.2313 31.9464 33.21 31.9464 34.4588C31.9464 35.0662 31.846 35.6063 31.6785 36.1125C31.5111 36.6187 31.2097 37.0237 30.8414 37.3612C30.473 37.6987 30.0042 37.9688 29.4684 38.1713C28.9326 38.3738 28.2629 38.475 27.5262 38.475H24.9477V41.9513H27.5262C28.2629 41.9513 28.9326 42.0187 29.5354 42.1875C30.1381 42.3563 30.6404 42.6262 31.0423 42.9637C31.4441 43.335 31.779 43.7738 32.0134 44.3138C32.2478 44.8538 32.3483 45.495 32.3483 46.2375C32.3483 47.6213 31.9464 48.6675 31.1762 49.3763C30.406 50.1525 29.3344 50.49 27.995 50.49ZM56.6262 30.51C55.5546 29.3962 54.2821 28.5188 52.8087 27.9113C51.3688 27.3038 49.7279 27 47.9196 27H40.0167V54H47.7187C49.5605 54 51.2683 53.6962 52.7752 53.0887C54.2821 52.4813 55.5881 51.6375 56.6597 50.5238C57.7313 49.41 58.5684 48.06 59.1377 46.5075C59.707 44.9212 60.0084 43.1663 60.0084 41.2088V39.8588C60.0084 37.9013 59.707 36.1462 59.1377 34.56C58.5349 32.9737 57.6978 31.6238 56.6262 30.51ZM55.3202 41.175C55.3202 42.5925 55.1528 43.8413 54.8514 44.9888C54.5165 46.1025 54.0477 47.0813 53.4115 47.8575C52.7752 48.6338 51.9715 49.2413 51.0339 49.6463C50.0628 50.0513 48.9577 50.2537 47.7187 50.2537H44.6714V30.78H47.9196C50.3307 30.78 52.1725 31.5563 53.4115 33.1088C54.684 34.6613 55.3202 36.8888 55.3202 39.825V41.175ZM40.0167 0L37.8066 0.10125L50.5651 12.96L55.0188 8.47125C65.969 13.7025 73.8049 24.4012 74.977 37.0912H80C78.3257 16.335 61.0799 0 40.0167 0Z" fill="black"/>
<path d="M25.0146 72.495C14.0645 67.2975 6.22855 56.565 5.02302 43.875H0C1.70783 64.665 18.9535 81 40.0167 81L42.2269 80.8988L29.4684 68.04L25.0146 72.495ZM27.995 50.49C27.3587 50.49 26.756 50.3888 26.2537 50.22C25.7179 50.0175 25.2825 49.7812 24.9142 49.41C24.5458 49.0725 24.2445 48.6675 24.0435 48.1613C23.8426 47.6888 23.7421 47.1488 23.7421 46.575H19.3889C19.3889 47.79 19.6233 48.87 20.0921 49.7812C20.5609 50.6925 21.1972 51.4687 21.9673 52.11C22.771 52.7175 23.6752 53.19 24.7133 53.4938C25.7179 53.8313 26.7894 54 27.928 54C29.167 54 30.3391 53.8313 31.3771 53.4938C32.4487 53.1562 33.3864 52.65 34.1565 52.0088C34.9267 51.3675 35.563 50.5575 35.9983 49.5787C36.4337 48.6 36.6681 47.52 36.6681 46.305C36.6681 45.6637 36.6011 45.0225 36.4337 44.415C36.2662 43.8075 36.0318 43.2337 35.6635 42.6937C35.3286 42.1537 34.8598 41.6813 34.324 41.2425C33.7547 40.8037 33.085 40.4663 32.2813 40.1963C32.951 39.8925 33.5203 39.5213 34.0226 39.0825C34.5249 38.6437 34.9267 38.1712 35.2616 37.665C35.5965 37.1588 35.8309 36.6525 35.9983 36.1125C36.1658 35.5725 36.2327 35.0325 36.2327 34.4925C36.2327 33.2775 36.0318 32.1975 35.63 31.2525C35.2281 30.3075 34.6589 29.5312 33.9221 28.9237C33.2524 28.2825 32.3483 27.81 31.3437 27.4725C30.3056 27.1688 29.167 27 27.928 27C26.7225 27 25.6174 27.1687 24.5793 27.54C23.5747 27.9112 22.6706 28.4175 21.9339 29.0587C21.2306 29.7 20.6614 30.4425 20.226 31.32C19.8242 32.1975 19.6233 33.1425 19.6233 34.1888H23.9766C23.9766 33.615 24.077 33.1088 24.2779 32.67C24.4789 32.2313 24.7468 31.8263 25.1151 31.5225C25.4835 31.2188 25.8853 30.9487 26.3876 30.78C26.8899 30.6112 27.3922 30.51 27.995 30.51C29.3344 30.51 30.3391 30.8475 30.9753 31.5563C31.6116 32.2313 31.9464 33.21 31.9464 34.4588C31.9464 35.0662 31.846 35.6063 31.6785 36.1125C31.5111 36.6187 31.2097 37.0237 30.8414 37.3612C30.473 37.6987 30.0042 37.9688 29.4684 38.1713C28.9326 38.3738 28.2629 38.475 27.5262 38.475H24.9477V41.9513H27.5262C28.2629 41.9513 28.9326 42.0187 29.5354 42.1875C30.1381 42.3563 30.6404 42.6262 31.0423 42.9637C31.4441 43.335 31.779 43.7738 32.0134 44.3138C32.2478 44.8538 32.3483 45.495 32.3483 46.2375C32.3483 47.6213 31.9464 48.6675 31.1762 49.3763C30.406 50.1525 29.3344 50.49 27.995 50.49ZM56.6262 30.51C55.5546 29.3962 54.2821 28.5188 52.8087 27.9113C51.3688 27.3038 49.7279 27 47.9196 27H40.0167V54H47.7187C49.5605 54 51.2683 53.6962 52.7752 53.0887C54.2821 52.4813 55.5881 51.6375 56.6597 50.5238C57.7313 49.41 58.5684 48.06 59.1377 46.5075C59.707 44.9212 60.0084 43.1663 60.0084 41.2088V39.8588C60.0084 37.9013 59.707 36.1462 59.1377 34.56C58.5349 32.9737 57.6978 31.6238 56.6262 30.51ZM55.3202 41.175C55.3202 42.5925 55.1528 43.8413 54.8514 44.9888C54.5165 46.1025 54.0477 47.0813 53.4115 47.8575C52.7752 48.6338 51.9715 49.2413 51.0339 49.6463C50.0628 50.0513 48.9577 50.2537 47.7187 50.2537H44.6714V30.78H47.9196C50.3307 30.78 52.1725 31.5563 53.4115 33.1088C54.684 34.6613 55.3202 36.8888 55.3202 39.825V41.175ZM40.0167 0L37.8066 0.10125L50.5651 12.96L55.0188 8.47125C65.969 13.7025 73.8049 24.4012 74.977 37.0912H80C78.3257 16.335 61.0799 0 40.0167 0Z" stroke="black"/>
</svg>
