<?xml version="1.0" encoding="utf-8"?>
<!-- Generator: Adobe Illustrator 23.0.3, SVG Export Plug-In . SVG Version: 6.00 Build 0)  -->
<svg version="1.1" id="Layer_1" xmlns="http://www.w3.org/2000/svg" xmlns:xlink="http://www.w3.org/1999/xlink" x="0px" y="0px"
	 viewBox="0 0 400 200" style="enable-background:new 0 0 400 200;" xml:space="preserve">
<style type="text/css">
	.st0{fill:#010101;}
	.st1{fill:#231F20;stroke:#FFFFFF;stroke-width:4;stroke-miterlimit:10;}
	.st2{fill:#231F20;}
</style>
<g>
	<polygon class="st0" points="55.8,109.3 55.8,120.6 84.1,120.6 84.1,128.5 55.8,128.5 55.8,145.7 44.8,145.7 44.8,101.3 
		85.8,101.3 85.8,109.3 	"/>
	<path class="st0" d="M130.9,145.7l-3.8-8.4h-22.8l-3.8,8.4H88.4l21.4-44.4h12l21.4,44.4H130.9z M115.8,112.1l-7.9,17.4h15.6
		L115.8,112.1z"/>
	<path class="st0" d="M195,140.3c-3.5,5.4-9.2,5.4-13.6,5.4h-30.5v-44.4h28.8c3.4,0,9.1,0,12.5,3.6c1.9,2.1,2.5,4.8,2.5,7
		c0.1,6.5-4.2,8.7-7.4,9.7c3.3,0.8,9.6,2.8,9.6,11.2C196.9,136.3,195.9,138.9,195,140.3 M178.7,109h-16.8v9.7h15.9
		c0.9,0,6.2,0.6,6.2-4.9C184,108.9,180.1,109,178.7,109 M179.9,126.5h-18v11.4H179c1.8,0,6.9,0.1,6.9-6
		C185.8,126.5,181.6,126.5,179.9,126.5"/>
	<polygon class="st0" points="207.3,145.7 207.3,101.3 218.4,101.3 218.4,137.5 243.1,137.5 243.1,145.7 	"/>
	<path class="st0" d="M289.5,145.7l-3.8-8.4H263l-3.8,8.4h-12.1l21.4-44.4h12l21.4,44.4H289.5z M274.4,112.1l-7.9,17.4h15.6
		L274.4,112.1z"/>
	<path class="st0" d="M353.6,140.3c-3.5,5.4-9.2,5.4-13.6,5.4h-30.5v-44.4h28.8c3.4,0,9.1,0,12.5,3.6c1.9,2.1,2.5,4.8,2.5,7
		c0.1,6.5-4.2,8.7-7.4,9.7c3.3,0.8,9.6,2.8,9.6,11.2C355.6,136.3,354.5,138.9,353.6,140.3 M337.3,109h-16.8v9.7h15.9
		c0.9,0,6.2,0.6,6.2-4.9C342.6,108.9,338.7,109,337.3,109 M338.6,126.5h-18v11.4h17.1c1.8,0,6.9,0.1,6.9-6
		C344.5,126.5,340.2,126.5,338.6,126.5"/>
</g>
<g>
	<path class="st0" d="M128.8,184.5c-0.6,0.7-1.2,1-1.5,1.1c-1,0.4-1.8,0.4-3.8,0.4l-3.4,0l0-19.9h4.9c2,0,2.9,0.5,3.5,1.2
		c1.2,1.3,1.1,3,1.1,3.5c0,0.4,0.1,2.1-0.8,3.3c-0.5,0.6-1,0.8-1.2,1c-0.4,0.2-0.7,0.2-1.1,0.2c0.3,0,1.1,0,1.9,0.5
		c1,0.6,1.6,1.8,1.6,4.1C130,182.4,129.6,183.6,128.8,184.5 M127.1,177.6c-0.1-0.1-0.3-0.5-0.7-0.8c-0.6-0.4-1.2-0.4-2.5-0.4l-1.4,0
		l0,7.4h1.4c0,0,1.2,0.1,1.7-0.1c1.2-0.3,1.8-1,1.8-3.2C127.5,180.5,127.6,178.6,127.1,177.6 M126.5,168.9c-0.7-0.6-1.7-0.5-2.5-0.5
		l-1.4,0l0,5.9l1.7,0c0.4,0,0.8,0,1.2-0.1c1-0.2,1.8-0.9,1.8-2.9C127.2,171.3,127.3,169.6,126.5,168.9"/>
	<polygon class="st0" points="146.9,186 146.9,166.2 155.6,166.2 155.6,168.4 149.4,168.4 149.4,174.3 154.8,174.3 154.8,176.5 
		149.4,176.5 149.4,183.8 155.8,183.8 155.8,186 	"/>
	<polygon class="st0" points="178.5,186 174.7,168.8 175,186 172.6,186 172.6,166.2 176,166.2 180,183.6 179.7,166.2 182,166.2 
		182,186 	"/>
	<polygon class="st0" points="201.9,168.4 201.9,174.2 207.3,174.2 207.3,176.4 201.9,176.4 201.9,186 199.4,186 199.4,166.2 
		208.1,166.2 208.1,168.4 	"/>
	<rect x="224.5" y="166.2" class="st0" width="2.4" height="19.9"/>
	<path class="st0" d="M253.5,180.9c0,0.2,0,1-0.1,1.7c-0.4,2.1-1.5,2.8-2.3,3.1c-0.9,0.3-1.9,0.3-2.2,0.3c-1.1,0-2.1-0.2-3-0.9
		c-0.2-0.2-0.6-0.5-0.9-1c-0.8-1.2-0.8-2.6-0.8-5.4v-3.2c0-1.1,0-2.2,0-3.3c0-1.5,0-3.7,1-5c0.9-1.2,2.5-1.6,3.9-1.6
		c1.8,0,2.8,0.7,3.3,1.3c0.8,0.8,1,1.8,1,4c0,0.4,0,0.9,0,1.3h-2.3c0-0.7,0-1.4,0-2.2c0-0.8-0.1-1.4-0.8-1.9
		c-0.2-0.2-0.6-0.4-1.3-0.4c-0.6,0-1.9,0.1-2.3,1.7c-0.3,1.1-0.3,3.5-0.3,6.5c0,1.5,0,3,0.1,4.4c0,0.8,0,1.9,0.4,2.6
		c0.5,1,1.7,1,2,1c0.2,0,0.8,0,1.3-0.4c0.9-0.7,0.9-2.3,0.9-3.3v-1.5h2.3C253.6,179.5,253.6,180.2,253.5,180.9"/>
	<path class="st0" d="M277.7,186l-0.7-3.8l-4.6,0l-0.7,3.8l-2.6,0l4.3-19.9h2.5l4.4,19.9H277.7z M274.6,169.9l-1.8,10.2l3.8,0
		L274.6,169.9z"/>
</g>
<line class="st1" x1="206.2" y1="56.8" x2="206.2" y2="47.5"/>
<path class="st2" d="M226.4,59c-3.5,2-6.4,0.4-6.4-3.6c0-4,2.8-8.9,6.3-11c2.2-1.3,4.2-1.1,5.3,0.2l7.6-4.4v-14l-32-18.4l-11.8,6.8
	l8.4,4.8c2.9-0.3,5.9,0.1,8.2,1.4c3.5,2,3.5,5.3,0,7.3s-9.2,2-12.7,0c-2.2-1.3-3-3.1-2.5-4.7l-8.4-4.8l-13.1,7.6V63l4,2.3
	c1.5-5.8,2.6-12.1,3.3-18.8c0.4-4.2,0.7-8.5,0.8-12.9c8.1,13.3,15.9,30.8,21.3,46.3l2.5,1.4l32-18.4V48.3l-7.6,4.4
	C230.6,55.3,228.6,57.8,226.4,59z"/>
</svg>
